RobotoFlexCondensed-Thin.ufo
<glyph name="parenleft" format="2">
  <advance width="555"/>
  <unicode hex="0028"/>
  <outline>
    <contour>
      <point x="541.6503267973884" y="-436.0" type="line"/>
      <point x="277" y="-348"/>
      <point x="124" y="-77"/>
      <point x="124.0" y="515.0" type="curve" smooth="yes"/>
      <point x="124.0" y="525.0" type="line" smooth="yes"/>
      <point x="124" y="1063"/>
      <point x="277" y="1388"/>
      <point x="541.6503267973884" y="1476.0" type="curve"/>
      <point x="541.6503267973884" y="1468.7575163399317" type="line"/>
      <point x="316" y="1381"/>
      <point x="175" y="1108"/>
      <point x="174.63078431367668" y="532.0" type="curve" smooth="yes"/>
      <point x="174.63078431367668" y="508.0" type="line" smooth="yes"/>
      <point x="175" y="-113"/>
      <point x="316" y="-338"/>
      <point x="541.6503267973884" y="-425.99084967326496" type="curve"/>
    </contour>
  </outline>
</glyph>
<glyph name="G" format="2">
  <advance width="991"/>
  <unicode hex="0047"/>
  <outline>
    <contour>
      <point x="115.0" y="702.8801960784883" type="curve" smooth="yes"/>
      <point x="115.0" y="753.1198039215117" type="line" smooth="yes"/>
      <point x="115" y="1270"/>
      <point x="319" y="1486"/>
      <point x="567.7172875817183" y="1486.0" type="curve" smooth="yes"/>
      <point x="877" y="1486"/>
      <point x="989" y="1329"/>
      <point x="1027.7848235293466" y="1035.4876750700444" type="curve" smooth="yes"/>
      <point x="1029.7341699347085" y="1028.1013071895534" type="line"/>
      <point x="977.0163725490032" y="1028.1013071895534" type="line"/>
      <point x="973.7343464052233" y="1038.1013071895534" type="line" smooth="yes"/>
      <point x="934" y="1278"/>
      <point x="856" y="1430"/>
      <point x="572.515980392165" y="1429.8226013072167" type="curve" smooth="yes"/>
      <point x="328" y="1430"/>
      <point x="167" y="1251"/>
      <point x="166.60379738556665" y="795.7864705881783" type="curve" smooth="yes"/>
      <point x="166.60379738556665" y="660.2135294118217" type="line" smooth="yes"/>
      <point x="167" y="214"/>
      <point x="331" y="26"/>
      <point x="612.0768431373201" y="26.177398692783328" type="curve" smooth="yes"/>
      <point x="776" y="26"/>
      <point x="891" y="64"/>
      <point x="981.9927058823366" y="144.36673202611667" type="curve"/>
      <point x="981.9927058823366" y="617.26797385622" type="line"/>
      <point x="610.5221372548451" y="617.26797385622" type="line"/>
      <point x="610.5221372548451" y="674.1560392156699" type="line"/>
      <point x="1029.7341699347085" y="674.1560392156699" type="line"/>
      <point x="1029.7341699347085" y="120.68535947711334" type="line"/>
      <point x="941" y="38"/>
      <point x="832" y="-30"/>
      <point x="606.7435098039867" y="-30.0" type="curve" smooth="yes"/>
      <point x="314" y="-30"/>
      <point x="115" y="152"/>
    </contour>
  </outline>
</glyph>
<glyph name="d" format="2">
  <advance width="1002"/>
  <unicode hex="0064"/>
  <outline>
    <contour>
      <point x="85.0" y="522.4285714285714" type="curve" smooth="yes"/>
      <point x="85.0" y="554.4285714285714" type="line" smooth="yes"/>
      <point x="85" y="870"/>
      <point x="217" y="1097"/>
      <point x="454.1724575162883" y="1096.857142857143" type="curve" smooth="yes"/>
      <point x="613" y="1097"/>
      <point x="726" y="1035"/>
      <point x="801.6876601307217" y="947.9769467786546" type="curve"/>
      <point x="801.6876601307217" y="1536.0" type="line"/>
      <point x="853.5237908496216" y="1536.0" type="line"/>
      <point x="853.5237908496216" y="0.0" type="line"/>
      <point x="803.9823267973883" y="0.0" type="line"/>
      <point x="802.6756339869416" y="141.88019607848835" type="line"/>
      <point x="805.908993464055" y="141.88019607848835" type="line"/>
      <point x="741" y="53"/>
      <point x="613" y="-20"/>
      <point x="454.1724575162883" y="-20.0" type="curve" smooth="yes"/>
      <point x="217" y="-20"/>
      <point x="85" y="207"/>
    </contour>
    <contour>
      <point x="135.79211764701" y="490.42857142857144" type="line" smooth="yes"/>
      <point x="136" y="202"/>
      <point x="242" y="37"/>
      <point x="478.30524183010334" y="37.48141176467334" type="curve" smooth="yes"/>
      <point x="638" y="37"/>
      <point x="752" y="121"/>
      <point x="801.6876601307217" y="217.96026143793836" type="curve"/>
      <point x="801.6876601307217" y="858.8968814192045" type="line"/>
      <point x="752" y="955"/>
      <point x="638" y="1039"/>
      <point x="478.30524183010334" y="1039.3757310924696" type="curve" smooth="yes"/>
      <point x="242" y="1039"/>
      <point x="136" y="875"/>
      <point x="135.79211764701" y="586.4285714285714" type="curve" smooth="yes"/>
    </contour>
  </outline>
</glyph>
<glyph name="i" format="2">
  <advance width="364"/>
  <unicode hex="0069"/>
  <outline>
    <contour>
      <point x="157.0" y="0.0" type="line"/>
      <point x="157.0" y="1076.857142857143" type="line"/>
      <point x="207.88678431367666" y="1076.857142857143" type="line"/>
      <point x="207.88678431367666" y="0.0" type="line"/>
    </contour>
    <contour>
      <point x="152.49738562089334" y="1413.0790084033777" type="curve" smooth="yes"/>
      <point x="152" y="1444"/>
      <point x="164" y="1468"/>
      <point x="181.96871895422666" y="1468.2889822595978" type="curve" smooth="yes"/>
      <point x="200" y="1468"/>
      <point x="211" y="1444"/>
      <point x="211.44005228755998" y="1413.0790084033777" type="curve" smooth="yes"/>
      <point x="211" y="1381"/>
      <point x="200" y="1358"/>
      <point x="182.91806535945" y="1357.8690345471575" type="curve" smooth="yes"/>
      <point x="164" y="1358"/>
      <point x="152" y="1381"/>
    </contour>
  </outline>
</glyph>
<glyph name="k" format="2">
  <advance width="891"/>
  <unicode hex="006B"/>
  <outline>
    <contour>
      <point x="148.0" y="0.0" type="line"/>
      <point x="148.0" y="1536.0" type="line"/>
      <point x="198.88678431367666" y="1536.0" type="line"/>
      <point x="198.88678431367666" y="597.2238225956995" type="line"/>
      <point x="739.3146591970745" y="1076.857142857143" type="line"/>
      <point x="853.4665163399318" y="1076.857142857143" type="line"/>
      <point x="198.44411764701002" y="510.4902427637505" type="line"/>
      <point x="198.44411764701002" y="0.0" type="line"/>
    </contour>
    <contour>
      <point x="815.600289449151" y="0.0" type="line"/>
      <point x="353.77442016805094" y="678.0540317460778" type="line"/>
      <point x="415.3614220354836" y="730.1218020542175" type="line"/>
      <point x="906.4183006536083" y="0.0" type="line"/>
    </contour>
  </outline>
</glyph>
<glyph name="o" format="2">
  <advance width="995"/>
  <unicode hex="006F"/>
  <outline>
    <contour>
      <point x="85.0" y="522.4285714285714" type="curve" smooth="yes"/>
      <point x="85.0" y="554.4285714285714" type="line" smooth="yes"/>
      <point x="85" y="909"/>
      <point x="246" y="1107"/>
      <point x="497.5186274509967" y="1106.857142857143" type="curve" smooth="yes"/>
      <point x="749" y="1107"/>
      <point x="911" y="909"/>
      <point x="911.10392156866" y="554.4285714285714" type="curve" smooth="yes"/>
      <point x="911.10392156866" y="522.4285714285714" type="line" smooth="yes"/>
      <point x="911" y="167"/>
      <point x="749" y="-30"/>
      <point x="497.5186274509967" y="-30.0" type="curve" smooth="yes"/>
      <point x="246" y="-30"/>
      <point x="85" y="167"/>
    </contour>
    <contour>
      <point x="135.79211764701" y="586.4285714285714" type="curve" smooth="yes"/>
      <point x="135.79211764701" y="490.42857142857144" type="line" smooth="yes"/>
      <point x="136" y="199"/>
      <point x="260" y="27"/>
      <point x="497.5186274509967" y="27.48141176467334" type="curve" smooth="yes"/>
      <point x="735" y="27"/>
      <point x="860" y="199"/>
      <point x="860.3118039215117" y="490.42857142857144" type="curve" smooth="yes"/>
      <point x="860.3118039215117" y="586.4285714285714" type="line" smooth="yes"/>
      <point x="860" y="885"/>
      <point x="743" y="1049"/>
      <point x="497.5186274509967" y="1049.3757310924696" type="curve" smooth="yes"/>
      <point x="252" y="1049"/>
      <point x="136" y="878"/>
    </contour>
  </outline>
</glyph>
<glyph name="x" format="2">
  <advance width="909"/>
  <unicode hex="0078"/>
  <outline>
    <contour>
      <point x="20.0" y="0.0" type="line"/>
      <point x="424.68762091505164" y="564.0752380952381" type="line"/>
      <point x="438.645098039175" y="564.6285714285714" type="line"/>
      <point x="806.2952418301032" y="1076.857142857143" type="line"/>
      <point x="867.8621830065983" y="1076.857142857143" type="line"/>
      <point x="471.5318562092101" y="526.7819047619047" type="line"/>
      <point x="455.1643790849483" y="526.2285714285714" type="line"/>
      <point x="80.72160784316168" y="0.0" type="line"/>
    </contour>
    <contour>
      <point x="43.43471895422667" y="1076.857142857143" type="line"/>
      <point x="110.10837908494833" y="1076.857142857143" type="line"/>
      <point x="482.07647058817827" y="572.9285714285714" type="line"/>
      <point x="483.05261437910667" y="574.3119047619048" type="line"/>
      <point x="890.2302352941583" y="0.0" type="line"/>
      <point x="822.6072287582133" y="0.0" type="line"/>
      <point x="443.04052287587666" y="526.2285714285714" type="line"/>
      <point x="440.83171241828165" y="526.7819047619047" type="line"/>
    </contour>
  </outline>
</glyph>
<glyph name="sterling" format="2">
  <advance width="805"/>
  <unicode hex="00A3"/>
  <outline>
    <contour>
      <point x="796.8333333333333" y="0.0" type="line"/>
      <point x="36.0" y="0.0" type="line"/>
      <point x="36.0" y="39.650000000000006" type="line"/>
      <point x="64.33333333333334" y="39.650000000000006" type="line" smooth="yes"/>
      <point x="240" y="40"/>
      <point x="372" y="199"/>
      <point x="344.06666666666666" y="408.9" type="curve" smooth="yes"/>
      <point x="258.6333333333333" y="1039.0" type="line" smooth="yes"/>
      <point x="215" y="1376"/>
      <point x="300" y="1488"/>
      <point x="512.45" y="1488.45" type="curve" smooth="yes"/>
      <point x="688" y="1488"/>
      <point x="774" y="1401"/>
      <point x="773.5833333333333" y="1158.3333333333333" type="curve" smooth="yes"/>
      <point x="773.5833333333333" y="1142.3333333333333" type="line"/>
      <point x="732.3666666666667" y="1142.3333333333333" type="line"/>
      <point x="732.3666666666667" y="1158.3333333333333" type="line" smooth="yes"/>
      <point x="723" y="1341"/>
      <point x="668" y="1436"/>
      <point x="514.45" y="1436.2666666666667" type="curve" smooth="yes"/>
      <point x="344" y="1436"/>
      <point x="284" y="1345"/>
      <point x="315.2166666666667" y="1039.0" type="curve" smooth="yes"/>
      <point x="378.6666666666667" y="422.23333333333335" type="line" smooth="yes"/>
      <point x="398" y="240"/>
      <point x="331" y="106"/>
      <point x="237.61666666666667" y="51.18333333333334" type="curve"/>
      <point x="796.8333333333333" y="51.18333333333334" type="line"/>
    </contour>
    <contour>
      <point x="648.1666666666666" y="734.4" type="line"/>
      <point x="79.66666666666666" y="734.4" type="line"/>
      <point x="79.66666666666666" y="761.9" type="line"/>
      <point x="648.1666666666666" y="761.9" type="line"/>
    </contour>
  </outline>
</glyph>
<glyph name="dieresis" format="2">
  <advance width="1024"/>
  <unicode hex="00A8"/>
  <outline>
    <contour>
      <point x="272.55" y="1272.2666666666667" type="curve" smooth="yes"/>
      <point x="273" y="1308"/>
      <point x="295" y="1338"/>
      <point x="338.6666666666667" y="1337.7666666666667" type="curve" smooth="yes"/>
      <point x="383" y="1338"/>
      <point x="406" y="1308"/>
      <point x="405.7833333333333" y="1272.2666666666667" type="curve" smooth="yes"/>
      <point x="406" y="1235"/>
      <point x="383" y="1207"/>
      <point x="338.6666666666667" y="1207.0" type="curve" smooth="yes"/>
      <point x="295" y="1207"/>
      <point x="273" y="1235"/>
    </contour>
    <contour>
      <point x="618.2166666666667" y="1270.2666666666667" type="curve" smooth="yes"/>
      <point x="618" y="1306"/>
      <point x="642" y="1336"/>
      <point x="684.3333333333334" y="1335.7666666666667" type="curve" smooth="yes"/>
      <point x="728" y="1336"/>
      <point x="751" y="1306"/>
      <point x="751.45" y="1270.2666666666667" type="curve" smooth="yes"/>
      <point x="751" y="1233"/>
      <point x="728" y="1205"/>
      <point x="684.3333333333334" y="1205.0" type="curve" smooth="yes"/>
      <point x="642" y="1205"/>
      <point x="618" y="1233"/>
    </contour>
  </outline>
</glyph>
<glyph name="ordfeminine" format="2">
  <advance width="798"/>
  <unicode hex="00AA"/>
  <guideline x="0" y="1681.0" angle="0" identifier="3CJlALCfkl"/>
  <guideline x="0" y="909.0" angle="0" identifier="Zdl6NZVQAy"/>
  <outline>
    <contour>
      <point x="537.0" y="862.0" type="line"/>
      <point x="537" y="807"/>
      <point x="549" y="746"/>
      <point x="580.0" y="706.0" type="curve"/>
      <point x="620.9333333333334" y="706.0" type="line"/>
      <point x="602" y="764"/>
      <point x="595" y="821"/>
      <point x="594.9333333333334" y="887.0" type="curve" smooth="yes"/>
      <point x="594.9333333333334" y="1201.0" type="line" smooth="yes"/>
      <point x="595" y="1371"/>
      <point x="537" y="1477"/>
      <point x="398.93333333333334" y="1477.0" type="curve" smooth="yes"/>
      <point x="258" y="1477"/>
      <point x="198" y="1395"/>
      <point x="197.93333333333334" y="1247.1666666666667" type="curve" smooth="yes"/>
      <point x="197.93333333333334" y="1234.0" type="line"/>
      <point x="245.03333333333333" y="1234.0" type="line"/>
      <point x="245.03333333333333" y="1247.0" type="line" smooth="yes"/>
      <point x="245" y="1362"/>
      <point x="301" y="1422"/>
      <point x="400.93333333333334" y="1422.0833333333333" type="curve" smooth="yes"/>
      <point x="490" y="1422"/>
      <point x="537" y="1331"/>
      <point x="537.0" y="1202.0" type="curve" smooth="yes"/>
    </contour>
    <contour>
      <point x="582.6" y="1135.1666666666667" type="line"/>
      <point x="411.93333333333334" y="1135.1666666666667" type="line" smooth="yes"/>
      <point x="271" y="1135"/>
      <point x="174" y="1059"/>
      <point x="173.93333333333334" y="918.0" type="curve" smooth="yes"/>
      <point x="174" y="777"/>
      <point x="260" y="692"/>
      <point x="363.43333333333334" y="692.0" type="curve" smooth="yes"/>
      <point x="478" y="692"/>
      <point x="549" y="763"/>
      <point x="580.3" y="878.5" type="curve"/>
      <point x="562.3" y="976.6666666666666" type="line"/>
      <point x="562" y="868"/>
      <point x="513" y="746"/>
      <point x="360.93333333333334" y="745.9166666666666" type="curve" smooth="yes"/>
      <point x="295" y="746"/>
      <point x="227" y="816"/>
      <point x="227.18333333333334" y="922.0" type="curve" smooth="yes"/>
      <point x="227" y="1040"/>
      <point x="305" y="1079"/>
      <point x="412.93333333333334" y="1069.6666666666667" type="curve" smooth="yes"/>
      <point x="582.6" y="1069.6666666666667" type="line"/>
    </contour>
  </outline>
</glyph>
<glyph name="ordmasculine" format="2">
  <advance width="859"/>
  <unicode hex="00BA"/>
  <guideline x="0" y="1975.0" angle="0" identifier="Jnt0R9CyOf"/>
  <outline>
    <contour>
      <point x="161.3" y="1043.0" type="curve"/>
      <point x="161.3" y="1124.0" type="line"/>
      <point x="161" y="1353"/>
      <point x="230" y="1477"/>
      <point x="429.8" y="1477.0" type="curve" smooth="yes"/>
      <point x="630" y="1477"/>
      <point x="698" y="1353"/>
      <point x="698.3" y="1124.0" type="curve"/>
      <point x="698.3" y="1043.0" type="line"/>
      <point x="698" y="814"/>
      <point x="630" y="691"/>
      <point x="431.8" y="691.0" type="curve" smooth="yes"/>
      <point x="229" y="691"/>
      <point x="161" y="814"/>
    </contour>
    <contour>
      <point x="219.16666666666669" y="1124.0" type="curve"/>
      <point x="219.16666666666669" y="1043.0" type="line"/>
      <point x="219" y="833"/>
      <point x="304" y="743"/>
      <point x="431.8" y="742.85" type="curve" smooth="yes"/>
      <point x="558" y="743"/>
      <point x="640" y="833"/>
      <point x="640.05" y="1043.0" type="curve"/>
      <point x="640.05" y="1124.0" type="line"/>
      <point x="640" y="1336"/>
      <point x="558" y="1422"/>
      <point x="429.8" y="1421.7666666666667" type="curve" smooth="yes"/>
      <point x="301" y="1422"/>
      <point x="219" y="1336"/>
    </contour>
  </outline>
</glyph>
<glyph name="questiondown" format="2">
  <advance width="951"/>
  <unicode hex="00BF"/>
  <guideline x="0" y="-181.0" angle="0" identifier="apukwP5ffL"/>
  <guideline x="0" y="921.0" angle="0" identifier="5ZPZZL8Rim"/>
  <outline>
    <contour>
      <point x="549.4333333333334" y="1094.6333333333334" type="curve" smooth="yes"/>
      <point x="549" y="1053"/>
      <point x="532" y="1019"/>
      <point x="504.0833333333333" y="1019.2666666666667" type="curve" smooth="yes"/>
      <point x="475" y="1019"/>
      <point x="458" y="1053"/>
      <point x="457.6666666666667" y="1094.6333333333334" type="curve" smooth="yes"/>
      <point x="458" y="1137"/>
      <point x="474" y="1170"/>
      <point x="503.01666666666665" y="1170.0" type="curve" smooth="yes"/>
      <point x="532" y="1170"/>
      <point x="549" y="1137"/>
    </contour>
    <contour>
      <point x="702.7833333333333" y="53.0" type="line"/>
      <point x="702.7833333333333" y="33.0" type="line" smooth="yes"/>
      <point x="703" y="-194"/>
      <point x="614" y="-328"/>
      <point x="466.3833333333333" y="-328.0" type="curve" smooth="yes"/>
      <point x="321" y="-328"/>
      <point x="235" y="-195"/>
      <point x="234.91666666666666" y="-1.1666666666666643" type="curve" smooth="yes"/>
      <point x="235" y="188"/>
      <point x="269" y="267"/>
      <point x="369.4" y="400.05" type="curve" smooth="yes"/>
      <point x="462" y="529"/>
      <point x="484" y="624"/>
      <point x="484.15" y="728.0" type="curve" smooth="yes"/>
      <point x="484.15" y="738.0" type="line"/>
      <point x="527.4333333333334" y="738.0" type="line"/>
      <point x="527.4333333333334" y="728.0" type="line" smooth="yes"/>
      <point x="527" y="582"/>
      <point x="482" y="492"/>
      <point x="393.0333333333333" y="363.18333333333334" type="curve" smooth="yes"/>
      <point x="306" y="243"/>
      <point x="278" y="158"/>
      <point x="278.2" y="-1.1666666666666643" type="curve" smooth="yes"/>
      <point x="278" y="-166"/>
      <point x="340" y="-276"/>
      <point x="466.3833333333333" y="-276.46666666666664" type="curve" smooth="yes"/>
      <point x="593" y="-276"/>
      <point x="660" y="-169"/>
      <point x="660.5" y="33.0" type="curve" smooth="yes"/>
      <point x="660.5" y="53.0" type="line"/>
    </contour>
  </outline>
</glyph>
<glyph name="germandbls" format="2">
  <advance width="1177"/>
  <unicode hex="00DF"/>
  <outline>
    <contour>
      <point x="299.0" y="1092.0" type="curve" name="hr00"/>
      <point x="299.0" y="0.0" type="line"/>
      <point x="251.75" y="0.0" type="line"/>
      <point x="251.75" y="1092.0" type="line" smooth="yes"/>
      <point x="252" y="1383"/>
      <point x="370" y="1534"/>
      <point x="582.6666666666666" y="1534.0" type="curve" smooth="yes"/>
      <point x="778" y="1534"/>
      <point x="857" y="1425"/>
      <point x="856.9333333333334" y="1215.0" type="curve" smooth="yes"/>
      <point x="857" y="1149"/>
      <point x="837" y="1057"/>
      <point x="776.45" y="978.5333333333333" type="curve" smooth="yes"/>
      <point x="735" y="928"/>
      <point x="680" y="850"/>
      <point x="679.7166666666667" y="803.7166666666667" type="curve" smooth="yes"/>
      <point x="680" y="745"/>
      <point x="758" y="660"/>
      <point x="868.0333333333333" y="578.8833333333333" type="curve" smooth="yes"/>
      <point x="1006" y="476"/>
      <point x="1043" y="407"/>
      <point x="1042.7666666666667" y="282.0" type="curve" smooth="yes"/>
      <point x="1043" y="84"/>
      <point x="975" y="-20"/>
      <point x="753.0" y="-20.0" type="curve" smooth="yes"/>
      <point x="572" y="-20"/>
      <point x="490" y="106"/>
      <point x="490.0" y="289.06666666666666" type="curve" smooth="yes"/>
      <point x="490.0" y="304.0" type="line"/>
      <point x="556.1666666666666" y="304.0" type="line"/>
      <point x="556.1666666666666" y="283.93333333333334" type="line" smooth="yes"/>
      <point x="556" y="134"/>
      <point x="633" y="36"/>
      <point x="755.0" y="35.55" type="curve" smooth="yes"/>
      <point x="904" y="36"/>
      <point x="990" y="133"/>
      <point x="989.5" y="302.0" type="curve" smooth="yes"/>
      <point x="990" y="354"/>
      <point x="977" y="429"/>
      <point x="846.5333333333333" y="525.8333333333334" type="curve" smooth="yes"/>
      <point x="748" y="599"/>
      <point x="632" y="683"/>
      <point x="632.1666666666666" y="799.7666666666667" type="curve" smooth="yes"/>
      <point x="632" y="890"/>
      <point x="680" y="946"/>
      <point x="722.6666666666666" y="1005.25" type="curve" smooth="yes"/>
      <point x="782" y="1087"/>
      <point x="804" y="1159"/>
      <point x="803.6666666666666" y="1212.3" type="curve" smooth="yes"/>
      <point x="804" y="1376"/>
      <point x="742" y="1478"/>
      <point x="578.6666666666666" y="1478.45" type="curve" smooth="yes"/>
      <point x="400" y="1478"/>
      <point x="299" y="1336"/>
    </contour>
  </outline>
</glyph>
<glyph name="Schwa" format="2">
  <advance width="1297"/>
  <unicode hex="018F"/>
  <outline>
    <contour>
      <point x="120.71666666666667" y="1167.1833333333334" type="line"/>
      <point x="243.61700000000002" y="1388.1046666666666"/>
      <point x="456.3133333333333" y="1519.0"/>
      <point x="594.3333333333334" y="1519.0" type="curve" smooth="yes"/>
      <point x="999.7726666666666" y="1519.0"/>
      <point x="1148.8833333333332" y="1223.6513333333332"/>
      <point x="1148.8833333333332" y="789.0" type="curve" smooth="yes"/>
      <point x="1148.8833333333332" y="303.9423333333333"/>
      <point x="975.3340000000001" y="-30.0"/>
      <point x="620.1" y="-30.0" type="curve" smooth="yes"/>
      <point x="324.9203333333333" y="-30.0"/>
      <point x="165.63333333333333" y="185.7373333333333"/>
      <point x="165.63333333333333" y="578.0" type="curve" smooth="yes"/>
      <point x="165.63333333333333" y="658.3333333333334" type="line"/>
      <point x="1078.6666666666667" y="658.3333333333334" type="line"/>
      <point x="1078.6666666666667" y="596.8833333333333" type="line"/>
      <point x="590.3333333333334" y="604.8833333333333" type="line"/>
      <point x="212.23333333333335" y="590.5833333333334" type="line"/>
      <point x="212.23333333333335" y="511.43333333333334" type="line" smooth="yes"/>
      <point x="212.23333333333335" y="221.05533333333335"/>
      <point x="370.97033333333326" y="37.516666666666666"/>
      <point x="625.95" y="37.516666666666666" type="curve" smooth="yes"/>
      <point x="946.277" y="37.516666666666666"/>
      <point x="1105.8133333333333" y="339.3263333333333"/>
      <point x="1103.1333333333332" y="762.8333333333334" type="curve" smooth="yes"/>
      <point x="1102.307" y="1214.056"/>
      <point x="949.962" y="1458.0"/>
      <point x="584.6333333333333" y="1458.0" type="curve" smooth="yes"/>
      <point x="451.41499999999996" y="1458.0"/>
      <point x="291.3796666666666" y="1368.9076666666667"/>
      <point x="157.0" y="1138.45" type="curve"/>
    </contour>
  </outline>
</glyph>
<glyph name="schwa" format="2">
  <advance width="771"/>
  <unicode hex="0259"/>
  <outline>
    <contour>
      <point x="686.3166666666666" y="542.0" type="curve" smooth="yes"/>
      <point x="686.3166666666666" y="510.0" type="line" smooth="yes"/>
      <point x="686.3166666666666" y="159.6346666666666"/>
      <point x="573.749" y="-30.0"/>
      <point x="353.9666666666667" y="-30.0" type="curve" smooth="yes"/>
      <point x="159.75599999999997" y="-30.0"/>
      <point x="53.38333333333333" y="131.00400000000002"/>
      <point x="53.38333333333333" y="492.0" type="curve" smooth="yes"/>
      <point x="53.38333333333333" y="520.9666666666667" type="line"/>
      <point x="665.0" y="520.9666666666667" type="line"/>
      <point x="665.0" y="467.0333333333333" type="line"/>
      <point x="104.43333333333334" y="467.0333333333333" type="line"/>
      <point x="104.81666666666666" y="459.6333333333333" type="line"/>
      <point x="104.30300000000001" y="145.82766666666663"/>
      <point x="197.618" y="26.549999999999997"/>
      <point x="357.0333333333333" y="26.549999999999997" type="curve" smooth="yes"/>
      <point x="529.3126666666667" y="26.549999999999997"/>
      <point x="636.0333333333333" y="199.8123333333333"/>
      <point x="636.0333333333333" y="510.0" type="curve" smooth="yes"/>
      <point x="636.0333333333333" y="542.0" type="line" smooth="yes"/>
      <point x="636.0333333333333" y="850.3340000000001"/>
      <point x="529.725" y="1025.45"/>
      <point x="322.58333333333337" y="1025.45" type="curve" smooth="yes"/>
      <point x="248.30266666666662" y="1025.45"/>
      <point x="175.679" y="992.054"/>
      <point x="98.38333333333334" y="888.5166666666667" type="curve"/>
      <point x="60.0" y="928.1833333333333" type="line"/>
      <point x="142.45466666666667" y="1044.4506666666668"/>
      <point x="227.80066666666664" y="1082.0"/>
      <point x="322.58333333333337" y="1082.0" type="curve" smooth="yes"/>
      <point x="557.4183333333334" y="1082.0"/>
      <point x="686.3166666666666" y="892.3653333333334"/>
    </contour>
  </outline>
</glyph>
<glyph name="breve" format="2">
  <advance width="1025"/>
  <unicode hex="02D8"/>
  <outline>
    <contour>
      <point x="776.1333333333333" y="1493.1" type="curve"/>
      <point x="814.4166666666666" y="1473.6833333333334" type="line"/>
      <point x="769.3703333333333" y="1311.3646666666666"/>
      <point x="659.1256666666667" y="1196.6166666666666"/>
      <point x="514.3833333333333" y="1196.6166666666666" type="curve" smooth="yes"/>
      <point x="359.256" y="1196.6166666666666"/>
      <point x="253.034" y="1318.6863333333336"/>
      <point x="211.58333333333334" y="1473.3" type="curve"/>
      <point x="246.41666666666666" y="1493.1" type="line"/>
      <point x="302.585" y="1333.3049999999998"/>
      <point x="397.48833333333334" y="1251.3333333333333"/>
      <point x="512.6166666666667" y="1251.3333333333333" type="curve" smooth="yes"/>
      <point x="625.1766666666667" y="1251.3333333333333"/>
      <point x="720.4786666666666" y="1335.3596666666667"/>
    </contour>
  </outline>
</glyph>
<glyph name="dotaccent" format="2">
  <advance width="1024"/>
  <unicode hex="02D9"/>
  <outline>
    <contour>
      <point x="450.1" y="1287.05" type="curve" smooth="yes"/>
      <point x="450.1" y="1323.766"/>
      <point x="469.29866666666663" y="1349.1"/>
      <point x="512.0" y="1349.1" type="curve" smooth="yes"/>
      <point x="557.0686666666667" y="1349.1"/>
      <point x="575.2833333333333" y="1323.766"/>
      <point x="575.2833333333333" y="1287.05" type="curve" smooth="yes"/>
      <point x="575.2833333333333" y="1250.334"/>
      <point x="557.0686666666667" y="1226.0"/>
      <point x="512.0" y="1226.0" type="curve" smooth="yes"/>
      <point x="469.29866666666663" y="1226.0"/>
      <point x="450.1" y="1250.334"/>
    </contour>
  </outline>
</glyph>
<glyph name="dieresisbelowcomb" format="2">
  <advance width="1024"/>
  <unicode hex="0324"/>
  <outline>
    <contour>
      <point x="352.06666666666666" y="-269.35" type="curve" smooth="yes"/>
      <point x="352.06666666666666" y="-252.57766666666663"/>
      <point x="370.64733333333334" y="-214.0"/>
      <point x="408.0333333333333" y="-214.0" type="curve" smooth="yes"/>
      <point x="454.53133333333335" y="-214.0"/>
      <point x="466.45" y="-244.80566666666667"/>
      <point x="466.45" y="-269.35" type="curve" smooth="yes"/>
      <point x="466.45" y="-285.20666666666665"/>
      <point x="446.75933333333336" y="-321.56666666666666"/>
      <point x="408.0333333333333" y="-321.56666666666666" type="curve" smooth="yes"/>
      <point x="364.81833333333327" y="-321.56666666666666"/>
      <point x="352.06666666666666" y="-291.0356666666666"/>
    </contour>
    <contour>
      <point x="655.6833333333333" y="-271.48333333333335" type="curve" smooth="yes"/>
      <point x="655.6833333333333" y="-254.71099999999996"/>
      <point x="672.8346666666666" y="-216.13333333333333"/>
      <point x="711.65" y="-216.13333333333333" type="curve" smooth="yes"/>
      <point x="754.865" y="-216.13333333333333"/>
      <point x="770.0666666666666" y="-246.939"/>
      <point x="770.0666666666666" y="-271.48333333333335" type="curve" smooth="yes"/>
      <point x="770.0666666666666" y="-287.34"/>
      <point x="747.0930000000001" y="-323.7"/>
      <point x="711.65" y="-323.7" type="curve" smooth="yes"/>
      <point x="667.0056666666667" y="-323.7"/>
      <point x="655.6833333333333" y="-293.1689999999999"/>
    </contour>
  </outline>
</glyph>
<glyph name="Xi" format="2">
  <advance width="962"/>
  <unicode hex="039E"/>
  <outline>
    <contour>
      <point x="67" y="0" type="line"/>
      <point x="67" y="66" type="line"/>
      <point x="895" y="66" type="line"/>
      <point x="895" y="0" type="line"/>
    </contour>
    <contour>
      <point x="169" y="709" type="line"/>
      <point x="169" y="775" type="line"/>
      <point x="793" y="775" type="line"/>
      <point x="793" y="709" type="line"/>
    </contour>
    <contour>
      <point x="67" y="1390" type="line"/>
      <point x="67" y="1456" type="line"/>
      <point x="895" y="1456" type="line"/>
      <point x="895" y="1390" type="line"/>
    </contour>
  </outline>
</glyph>
<glyph name="Psi" format="2">
  <advance width="1416"/>
  <unicode hex="03A8"/>
  <outline>
    <contour>
      <point x="683" y="0" type="line"/>
      <point x="683" y="1456" type="line"/>
      <point x="733" y="1456" type="line"/>
      <point x="733" y="0" type="line"/>
    </contour>
    <contour>
      <point x="693" y="361" type="line"/>
      <point x="690" y="361" type="line"/>
      <point x="278" y="361"/>
      <point x="155" y="535"/>
      <point x="155" y="868" type="curve"/>
      <point x="155" y="1456" type="line"/>
      <point x="205" y="1456" type="line"/>
      <point x="205" y="866" type="line"/>
      <point x="205" y="522"/>
      <point x="361" y="417"/>
      <point x="690" y="417" type="curve"/>
      <point x="693" y="417" type="line"/>
    </contour>
    <contour>
      <point x="723" y="361" type="line"/>
      <point x="723" y="417" type="line"/>
      <point x="726" y="417" type="line"/>
      <point x="1055" y="417"/>
      <point x="1211" y="522"/>
      <point x="1211" y="866" type="curve"/>
      <point x="1211" y="1456" type="line"/>
      <point x="1261" y="1456" type="line"/>
      <point x="1261" y="868" type="line"/>
      <point x="1261" y="535"/>
      <point x="1138" y="361"/>
      <point x="726" y="361" type="curve"/>
    </contour>
  </outline>
</glyph>
<glyph name="Omega" format="2">
  <advance width="1263"/>
  <unicode hex="03A9"/>
  <anchor x="134" y="1456.0" name="GRK_topleft"/>
  <outline>
    <contour>
      <point x="117" y="0" type="line"/>
      <point x="543" y="0" type="line"/>
      <point x="543" y="355" type="line"/>
      <point x="301" y="388"/>
      <point x="167" y="599"/>
      <point x="167" y="850" type="curve" smooth="yes"/>
      <point x="167" y="918" type="line" smooth="yes"/>
      <point x="167" y="1255"/>
      <point x="326" y="1430"/>
      <point x="631" y="1430" type="curve"/>
      <point x="936" y="1430"/>
      <point x="1095" y="1255"/>
      <point x="1095" y="918" type="curve" smooth="yes"/>
      <point x="1095" y="850" type="line" smooth="yes"/>
      <point x="1095" y="599"/>
      <point x="961" y="388"/>
      <point x="719" y="355" type="curve"/>
      <point x="719" y="0" type="line"/>
      <point x="1145" y="0" type="line"/>
      <point x="1145" y="56" type="line"/>
      <point x="771" y="56" type="line"/>
      <point x="771" y="318" type="line"/>
      <point x="1058" y="393"/>
      <point x="1147" y="633"/>
      <point x="1147" y="846" type="curve" smooth="yes"/>
      <point x="1147" y="902" type="line" smooth="yes"/>
      <point x="1148" y="1277"/>
      <point x="967" y="1486"/>
      <point x="631" y="1486" type="curve"/>
      <point x="295" y="1486"/>
      <point x="114" y="1277"/>
      <point x="115" y="902" type="curve" smooth="yes"/>
      <point x="115" y="846" type="line" smooth="yes"/>
      <point x="115" y="633"/>
      <point x="204" y="393"/>
      <point x="491" y="318" type="curve"/>
      <point x="491" y="56" type="line"/>
      <point x="117" y="56" type="line"/>
    </contour>
  </outline>
</glyph>
<glyph name="epsilon" format="2">
  <advance width="760"/>
  <unicode hex="03B5"/>
  <anchor x="434.6333333333333" y="1076.857142857143" name="GRK_top"/>
  <outline>
    <contour>
      <point x="392.06666666666666" y="-30.0" type="curve"/>
      <point x="163.619" y="-30.0"/>
      <point x="43.36666666666667" y="114.90614285714287"/>
      <point x="43.36666666666667" y="264.4214285714286" type="curve"/>
      <point x="43.36666666666667" y="458.9128571428571"/>
      <point x="115.46699999999998" y="532.2028571428572"/>
      <point x="272.85" y="548.8571428571429" type="curve"/>
      <point x="274.3" y="526.2142857142857" type="line"/>
      <point x="148.11666666666665" y="549.5685714285714"/>
      <point x="74.58333333333334" y="644.8404761904761"/>
      <point x="74.58333333333334" y="779.3190476190476" type="curve"/>
      <point x="74.58333333333334" y="968.2590476190476"/>
      <point x="193.69" y="1106.0714285714287"/>
      <point x="431.31666666666666" y="1106.0714285714287" type="curve" smooth="yes"/>
      <point x="695.5646666666667" y="1106.0714285714287"/>
      <point x="790.9626666666667" y="943.5306666666668"/>
      <point x="789.5333333333333" y="729.1880952380952" type="curve"/>
      <point x="740.5857142857143" y="729.1880952380952" type="line"/>
      <point x="748.000380952381" y="876.7125238095239"/>
      <point x="702.2646666666667" y="1047.9738095238095"/>
      <point x="431.31666666666666" y="1047.9738095238095" type="curve" smooth="yes"/>
      <point x="214.66099999999997" y="1047.9738095238095"/>
      <point x="127.36428571428573" y="923.3835238095238"/>
      <point x="127.36428571428573" y="788.547619047619" type="curve"/>
      <point x="127.36428571428573" y="647.4583809523809"/>
      <point x="202.03566666666666" y="573.9047619047619"/>
      <point x="325.51666666666665" y="573.9047619047619" type="curve"/>
      <point x="552.15" y="573.9047619047619" type="line"/>
      <point x="552.15" y="513.8380952380952" type="line"/>
      <point x="325.51666666666665" y="513.8380952380952" type="line" smooth="yes"/>
      <point x="167.754" y="513.8380952380952"/>
      <point x="96.0809523809524" y="441.3340476190476"/>
      <point x="96.0809523809524" y="273.6904761904762" type="curve"/>
      <point x="96.0809523809524" y="119.15657142857143"/>
      <point x="172.87299999999996" y="26.647619047619045"/>
      <point x="388.23333333333335" y="26.647619047619045" type="curve"/>
      <point x="635.3293333333334" y="26.647619047619045"/>
      <point x="731.4446666666666" y="110.72514285714286"/>
      <point x="742.5666666666667" y="347.6690476190476" type="curve"/>
      <point x="789.5333333333333" y="347.6690476190476" type="line"/>
      <point x="789.5333333333333" y="104.92166666666665"/>
      <point x="686.7773333333333" y="-30.0"/>
    </contour>
  </outline>
</glyph>
<glyph name="iota" format="2">
  <advance width="481"/>
  <unicode hex="03B9"/>
  <anchor x="144.86666666666667" y="1076.857142857143" name="GRK_top"/>
  <outline>
    <contour>
      <point x="324.16666666666663" y="-30.0" type="curve" smooth="yes"/>
      <point x="209.03833333333336" y="-30.0"/>
      <point x="138.0" y="59.44266666666664"/>
      <point x="138.0" y="264.15" type="curve" smooth="yes"/>
      <point x="138.0" y="1076.857142857143" type="line"/>
      <point x="189.58333333333334" y="1076.857142857143" type="line"/>
      <point x="189.58333333333334" y="256.68333333333334" type="line" smooth="yes"/>
      <point x="189.58333333333334" y="80.16066666666663"/>
      <point x="232.779" y="25.066666666666677"/>
      <point x="336.3833333333333" y="25.066666666666677" type="curve" smooth="yes"/>
      <point x="372.31766666666664" y="25.066666666666677"/>
      <point x="400.5266666666667" y="29.808666666666667"/>
      <point x="430.9" y="40.349999999999994" type="curve"/>
      <point x="430.9" y="-9.683333333333334" type="line"/>
      <point x="407.3383333333333" y="-20.202333333333332"/>
      <point x="370.03933333333333" y="-30.0"/>
    </contour>
  </outline>
</glyph>
<glyph name="lambda" format="2">
  <advance width="913"/>
  <unicode hex="03BB"/>
  <outline>
    <contour>
      <point x="0.0" y="0.0" type="line"/>
      <point x="448.0880952380952" y="1111.0452380952381" type="line"/>
      <point x="397.04285714285714" y="1233.9119047619047" type="line" smooth="yes"/>
      <point x="286.87571428571425" y="1495.3427142857145"/>
      <point x="236.68776190476189" y="1501.1333333333332"/>
      <point x="120.94047619047618" y="1501.1333333333332" type="curve" smooth="yes"/>
      <point x="65.99728571428571" y="1501.1333333333332"/>
      <point x="31.08676190476191" y="1482.759"/>
      <point x="24.495238095238093" y="1477.6" type="curve"/>
      <point x="24.495238095238093" y="1533.2333333333333" type="line"/>
      <point x="68.98642857142858" y="1550.3406666666667"/>
      <point x="103.99433333333332" y="1556.0"/>
      <point x="152.19285714285715" y="1556.0" type="curve" smooth="yes"/>
      <point x="271.5868571428572" y="1556.0"/>
      <point x="334.8228095238095" y="1505.9523333333334"/>
      <point x="439.35238095238094" y="1252.0" type="curve" smooth="yes"/>
      <point x="923.2238095238096" y="0.0" type="line"/>
      <point x="843.8571428571429" y="0.0" type="line"/>
      <point x="512.5119047619048" y="873.4595238095238" type="line" smooth="yes"/>
      <point x="502.9723809523809" y="896.6798095238096"/>
      <point x="470.04366666666664" y="1009.4877142857143"/>
      <point x="475.9428571428571" y="1018.3380952380952" type="curve"/>
      <point x="469.62619047619046" y="1018.3380952380952" type="line"/>
      <point x="460.03880952380956" y="995.5325714285715"/>
      <point x="447.5437142857143" y="939.7448571428571"/>
      <point x="424.4" y="873.4595238095238" type="curve" smooth="yes"/>
      <point x="78.58333333333333" y="0.0" type="line"/>
    </contour>
  </outline>
</glyph>
<glyph name="pi" format="2">
  <advance width="977"/>
  <unicode hex="03C0"/>
  <outline>
    <contour>
      <point x="32.0" y="1020.1071428571429" type="line"/>
      <point x="32.0" y="1076.857142857143" type="line"/>
      <point x="957.15" y="1076.857142857143" type="line"/>
      <point x="957.15" y="1020.1071428571429" type="line"/>
    </contour>
    <contour>
      <point x="160.03333333333333" y="0.0" type="line"/>
      <point x="160.03333333333333" y="1049.1738095238095" type="line"/>
      <point x="211.61666666666667" y="1049.1738095238095" type="line"/>
      <point x="211.61666666666667" y="0.0" type="line"/>
    </contour>
    <contour>
      <point x="888.5833333333334" y="-19.333333333333336" type="curve" smooth="yes"/>
      <point x="805.9276666666666" y="-19.333333333333336"/>
      <point x="777.0833333333334" y="15.25533333333334"/>
      <point x="777.0833333333334" y="78.94999999999999" type="curve" smooth="yes"/>
      <point x="777.0833333333334" y="1049.1738095238095" type="line"/>
      <point x="830.05" y="1049.1738095238095" type="line"/>
      <point x="830.05" y="85.55000000000001" type="line" smooth="yes"/>
      <point x="830.05" y="28.555333333333344"/>
      <point x="872.6506666666667" y="31.46666666666667"/>
      <point x="894.85" y="31.46666666666667" type="curve" smooth="yes"/>
      <point x="925.469" y="31.46666666666667"/>
      <point x="942.0836666666668" y="37.50933333333334"/>
      <point x="963.2333333333333" y="47.91666666666667" type="curve"/>
      <point x="963.2333333333333" y="-5.316666666666666" type="line"/>
      <point x="940.5426666666666" y="-15.523000000000001"/>
      <point x="894.5463333333332" y="-19.333333333333336"/>
    </contour>
  </outline>
</glyph>
<glyph name="rho" format="2">
  <advance width="953"/>
  <unicode hex="03C1"/>
  <outline>
    <contour>
      <point x="99.0" y="-416.0" type="line"/>
      <point x="99.0" y="568.0" type="line" smooth="yes"/>
      <point x="99.0" y="898.98"/>
      <point x="243.344" y="1099.0"/>
      <point x="482.4" y="1099.0" type="curve" smooth="yes"/>
      <point x="727.8656666666667" y="1099.0"/>
      <point x="866.6666666666667" y="849.0104761904761"/>
      <point x="866.6666666666667" y="566.1428571428571" type="curve" smooth="yes"/>
      <point x="866.6666666666667" y="518.9904761904762" type="line" smooth="yes"/>
      <point x="866.6666666666667" y="186.9225238095238"/>
      <point x="728.8083333333333" y="-20.0"/>
      <point x="514.9666666666667" y="-20.0" type="curve" smooth="yes"/>
      <point x="312.31399999999996" y="-20.0"/>
      <point x="191.096" y="63.574"/>
      <point x="150.58333333333334" y="121.28333333333333" type="curve"/>
      <point x="150.58333333333334" y="-416.0" type="line"/>
    </contour>
    <contour>
      <point x="475.91666666666663" y="37.81666666666666" type="curve" smooth="yes"/>
      <point x="697.173" y="37.81666666666666"/>
      <point x="815.2333333333333" y="167.08552380952375"/>
      <point x="815.2333333333333" y="497.65714285714284" type="curve" smooth="yes"/>
      <point x="815.2333333333333" y="565.7428571428571" type="line" smooth="yes"/>
      <point x="815.2333333333333" y="886.7781428571429"/>
      <point x="677.6658095238095" y="1041.1833333333334"/>
      <point x="473.64761904761906" y="1041.1833333333334" type="curve" smooth="yes"/>
      <point x="205.40514285714278" y="1041.1833333333334"/>
      <point x="150.58333333333334" y="861.1893333333333"/>
      <point x="150.58333333333334" y="573.0" type="curve"/>
      <point x="150.58333333333334" y="204.43333333333334" type="line"/>
      <point x="182.54233333333335" y="141.498"/>
      <point x="293.3416666666667" y="37.81666666666666"/>
    </contour>
  </outline>
</glyph>
<glyph name="sigma" format="2">
  <advance width="1037"/>
  <unicode hex="03C3"/>
  <outline>
    <contour>
      <point x="498.6666666666667" y="-30.0" type="curve" smooth="yes"/>
      <point x="246.70199999999997" y="-30.0"/>
      <point x="85.0" y="192.81761904761902"/>
      <point x="85.0" y="503.85714285714283" type="curve" smooth="yes"/>
      <point x="85.0" y="534.0" type="line" smooth="yes"/>
      <point x="85.0" y="867.787619047619"/>
      <point x="255.362" y="1076.857142857143"/>
      <point x="504.2" y="1076.857142857143" type="curve" smooth="yes"/>
      <point x="987.4833333333333" y="1076.857142857143" type="line"/>
      <point x="987.4833333333333" y="1020.1071428571429" type="line"/>
      <point x="627.0166666666667" y="1020.1071428571429" type="line"/>
      <point x="627.0166666666667" y="1045.7571428571428" type="line"/>
      <point x="821.1826666666668" y="956.8258095238095"/>
      <point x="911.2666666666667" y="760.567619047619"/>
      <point x="911.2666666666667" y="538.0" type="curve" smooth="yes"/>
      <point x="911.2666666666667" y="507.85714285714283" type="line" smooth="yes"/>
      <point x="911.2666666666667" y="196.81761904761902"/>
      <point x="750.6313333333334" y="-30.0"/>
    </contour>
    <contour>
      <point x="498.6666666666667" y="29.200000000000003" type="curve" smooth="yes"/>
      <point x="740.0229999999999" y="29.200000000000003"/>
      <point x="860.9" y="226.56961904761903"/>
      <point x="860.9" y="503.70714285714286" type="curve" smooth="yes"/>
      <point x="860.9" y="540.7666666666667" type="line" smooth="yes"/>
      <point x="860.9" y="829.4186190476191"/>
      <point x="738.9713333333334" y="1015.5238095238095"/>
      <point x="503.5333333333333" y="1015.5238095238095" type="curve"/>
      <point x="235.45357142857148" y="1015.5238095238095"/>
      <point x="133.98333333333335" y="817.1552857142858"/>
      <point x="133.98333333333335" y="536.7666666666667" type="curve" smooth="yes"/>
      <point x="133.98333333333335" y="499.70714285714286" type="line" smooth="yes"/>
      <point x="133.98333333333335" y="222.56961904761903"/>
      <point x="255.881" y="29.200000000000003"/>
    </contour>
  </outline>
</glyph>
<glyph name="Ieukran" format="2">
  <advance width="1004"/>
  <unicode hex="0404"/>
  <guideline x="211.0" y="787.0" angle="90.0" identifier="mFTeE97JTj"/>
  <outline>
    <contour>
      <point x="142.78333333333333" y="766.65" type="line"/>
      <point x="680.15" y="766.65" type="line"/>
      <point x="680.15" y="709.75" type="line"/>
      <point x="142.78333333333333" y="709.75" type="line"/>
    </contour>
    <contour>
      <point x="115.0" y="702.75" type="curve" smooth="yes"/>
      <point x="115.0" y="753.25" type="line" smooth="yes"/>
      <point x="115.0" y="1275.023666666667"/>
      <point x="304.896" y="1486.0"/>
      <point x="602.7333333333333" y="1486.0" type="curve" smooth="yes"/>
      <point x="874.5746666666666" y="1486.0"/>
      <point x="1034.6166666666668" y="1333.7153333333335"/>
      <point x="1034.6166666666668" y="1036.95" type="curve" smooth="yes"/>
      <point x="1034.6166666666668" y="1026.95" type="line"/>
      <point x="982.5666666666667" y="1026.95" type="line"/>
      <point x="982.5666666666667" y="1036.95" type="line" smooth="yes"/>
      <point x="982.5666666666667" y="1205.053"/>
      <point x="872.5423333333333" y="1429.7"/>
      <point x="602.7333333333333" y="1429.7" type="curve" smooth="yes"/>
      <point x="315.147" y="1429.7"/>
      <point x="166.6" y="1180.0606666666667"/>
      <point x="166.6" y="763.6333333333333" type="curve" smooth="yes"/>
      <point x="166.6" y="671.6833333333333" type="line" smooth="yes"/>
      <point x="166.6" y="216.59699999999998"/>
      <point x="337.4633333333333" y="26.30000000000001"/>
      <point x="601.6666666666666" y="26.30000000000001" type="curve" smooth="yes"/>
      <point x="882.9550000000002" y="26.30000000000001"/>
      <point x="1002.6426666666666" y="256.977"/>
      <point x="984.0166666666667" y="419.05" type="curve" smooth="yes"/>
      <point x="982.5666666666667" y="429.05" type="line"/>
      <point x="1034.6166666666668" y="429.05" type="line"/>
      <point x="1036.0666666666666" y="419.05" type="line" smooth="yes"/>
      <point x="1074.9266666666665" y="122.19533333333328"/>
      <point x="874.5746666666666" y="-30.0"/>
      <point x="602.7333333333333" y="-30.0" type="curve" smooth="yes"/>
      <point x="302.0373333333334" y="-30.0"/>
      <point x="115.0" y="175.14733333333334"/>
    </contour>
  </outline>
</glyph>
<glyph name="Be" format="2">
  <advance width="992"/>
  <unicode hex="0411"/>
  <outline>
    <contour>
      <point x="170.0" y="0.0" type="line"/>
      <point x="170.0" y="1456.0" type="line"/>
      <point x="851.6666666666667" y="1456.0" type="line"/>
      <point x="851.6666666666667" y="1400.1666666666667" type="line"/>
      <point x="222.05" y="1400.1666666666667" type="line"/>
      <point x="222.05" y="846.8666666666667" type="line"/>
      <point x="531.05" y="846.8666666666667" type="line" smooth="yes"/>
      <point x="796.7943333333334" y="846.8666666666667"/>
      <point x="916.5166666666667" y="708.892"/>
      <point x="916.5166666666667" y="421.2833333333333" type="curve" smooth="yes"/>
      <point x="916.5166666666667" y="135.61766666666665"/>
      <point x="796.7943333333334" y="0.0"/>
      <point x="531.05" y="0.0" type="curve" smooth="yes"/>
    </contour>
    <contour>
      <point x="222.05" y="789.9666666666667" type="line"/>
      <point x="222.05" y="55.83333333333334" type="line"/>
      <point x="531.05" y="55.83333333333334" type="line" smooth="yes"/>
      <point x="779.419" y="55.83333333333334"/>
      <point x="864.4666666666667" y="191.384"/>
      <point x="864.4666666666667" y="421.2833333333333" type="curve" smooth="yes"/>
      <point x="864.4666666666667" y="654.4656666666666"/>
      <point x="779.7816666666666" y="789.9666666666667"/>
      <point x="529.9833333333333" y="789.9666666666667" type="curve" smooth="yes"/>
    </contour>
  </outline>
</glyph>
<glyph name="Ya" format="2">
  <advance width="995"/>
  <unicode hex="042F"/>
  <outline>
    <contour>
      <point x="824.6666666666667" y="0.0" type="line"/>
      <point x="824.6666666666667" y="1456.0" type="line"/>
      <point x="489.0" y="1456.0" type="line" smooth="yes"/>
      <point x="226.8669147286954" y="1456.0"/>
      <point x="103.18333333333334" y="1333.2266666666667"/>
      <point x="103.18333333333334" y="1049.8166666666666" type="curve" smooth="yes"/>
      <point x="103.18333333333334" y="794.8741971758162"/>
      <point x="199.97481105183448" y="669.7077712080422"/>
      <point x="406.18333333333334" y="646.5666666666667" type="curve"/>
      <point x="397.7166666666667" y="644.55" type="line"/>
      <point x="772.6166666666667" y="644.55" type="line"/>
      <point x="772.6166666666667" y="0.0" type="line"/>
    </contour>
    <contour>
      <point x="772.6166666666667" y="700.8333333333334" type="line"/>
      <point x="483.6666666666667" y="700.8333333333334" type="line" smooth="yes"/>
      <point x="239.65266666666665" y="700.8333333333334"/>
      <point x="155.23333333333335" y="830.1906666666666"/>
      <point x="155.23333333333335" y="1049.8166666666666" type="curve" smooth="yes"/>
      <point x="155.23333333333335" y="1270.872"/>
      <point x="241.00594579949868" y="1400.7833333333333"/>
      <point x="489.0" y="1400.7833333333333" type="curve" smooth="yes"/>
      <point x="772.6166666666667" y="1400.7833333333333" type="line"/>
    </contour>
    <contour>
      <point x="107.41666666666666" y="0.0" type="line"/>
      <point x="476.5333333333333" y="672.0" type="line"/>
      <point x="415.8" y="672.0" type="line"/>
      <point x="41.38333333333333" y="0.0" type="line"/>
    </contour>
  </outline>
</glyph>
<glyph name="ve" format="2">
  <advance width="904"/>
  <unicode hex="0432"/>
  <outline>
    <contour>
      <point x="148.0" y="0.0" type="line"/>
      <point x="148.0" y="1052.0" type="line"/>
      <point x="508.3333333333333" y="1052.0" type="line" smooth="yes"/>
      <point x="674.0913333333333" y="1052.0"/>
      <point x="778.9666666666667" y="954.8216666666667"/>
      <point x="778.9666666666667" y="775.15" type="curve" smooth="yes"/>
      <point x="778.9666666666667" y="648.4753333333333"/>
      <point x="707.0895487712103" y="560.5942707115071"/>
      <point x="633.0" y="544.0" type="curve"/>
      <point x="633.0" y="541.0" type="line"/>
      <point x="743.6840000000001" y="524.6966666666667"/>
      <point x="824.2666666666667" y="425.37166666666667"/>
      <point x="824.2666666666667" y="306.0" type="curve" smooth="yes"/>
      <point x="824.2666666666667" y="111.69999999999999"/>
      <point x="717.126" y="0.0"/>
      <point x="546.6333333333333" y="0.0" type="curve" smooth="yes"/>
    </contour>
    <contour>
      <point x="198.2" y="59.233333333333334" type="line"/>
      <point x="546.6333333333333" y="59.233333333333334" type="line" smooth="yes"/>
      <point x="698.6563333333334" y="59.233333333333334"/>
      <point x="770.3" y="152.05633333333333"/>
      <point x="770.3" y="306.0" type="curve" smooth="yes"/>
      <point x="770.3" y="425.2376666666667"/>
      <point x="690.728" y="505.8833333333333"/>
      <point x="546.6333333333333" y="505.8833333333333" type="curve" smooth="yes"/>
      <point x="198.2" y="505.8833333333333" type="line"/>
    </contour>
    <contour>
      <point x="198.2" y="564.1166666666667" type="line"/>
      <point x="508.3333333333333" y="564.1166666666667" type="line" smooth="yes"/>
      <point x="662.7236666666666" y="564.1166666666667"/>
      <point x="724.0" y="637.5016666666667"/>
      <point x="724.0" y="778.9833333333333" type="curve" smooth="yes"/>
      <point x="724.0" y="908.0029999999999"/>
      <point x="663.6643333333333" y="992.7666666666667"/>
      <point x="505.56666666666666" y="992.7666666666667" type="curve" smooth="yes"/>
      <point x="198.2" y="992.7666666666667" type="line"/>
    </contour>
  </outline>
</glyph>
<glyph name="em" format="2">
  <advance width="1157"/>
  <unicode hex="043C"/>
  <outline>
    <contour>
      <point x="148.0" y="0.0" type="line"/>
      <point x="148.0" y="1052.0" type="line"/>
      <point x="209.6" y="1052.0" type="line"/>
      <point x="530.25" y="187.28333333333333" type="line" smooth="yes"/>
      <point x="531.59" y="168.45633333333336"/>
      <point x="563.5223333333333" y="101.186"/>
      <point x="575.7833333333333" y="72.73333333333333" type="curve"/>
      <point x="581.6333333333333" y="72.73333333333333" type="line"/>
      <point x="595.748" y="103.03966666666666"/>
      <point x="621.1193333333333" y="163.48333333333332"/>
      <point x="626.1666666666666" y="188.05" type="curve" smooth="yes"/>
      <point x="947.4333333333334" y="1052.0" type="line"/>
      <point x="1009.25" y="1052.0" type="line"/>
      <point x="1009.25" y="0.0" type="line"/>
      <point x="950.2666666666667" y="0.0" type="line"/>
      <point x="950.2666666666667" y="822.5166666666667" type="line" smooth="yes"/>
      <point x="950.2666666666667" y="847.8203333333333"/>
      <point x="955.3533333333334" y="911.33"/>
      <point x="958.0333333333333" y="956.6666666666666" type="curve"/>
      <point x="950.4166666666666" y="956.6666666666666" type="line"/>
      <point x="940.0093333333333" y="911.33"/>
      <point x="911.1143333333334" y="840.7073333333333"/>
      <point x="909.35" y="821.3666666666667" type="curve" smooth="yes"/>
      <point x="607.3666666666667" y="0.0" type="line"/>
      <point x="544.2" y="0.0" type="line"/>
      <point x="239.4" y="818.8333333333334" type="line" smooth="yes"/>
      <point x="233.23600000000002" y="844.9633333333334"/>
      <point x="207.93699999999998" y="909.9466666666667"/>
      <point x="199.38333333333333" y="955.2833333333333" type="curve"/>
      <point x="192.15" y="955.2833333333333" type="line"/>
      <point x="194.83" y="909.9466666666667"/>
      <point x="201.3" y="846.8356666666666"/>
      <point x="201.3" y="818.45" type="curve" smooth="yes"/>
      <point x="201.3" y="0.0" type="line"/>
    </contour>
  </outline>
</glyph>
<glyph name="ecyr" format="2">
  <advance width="837"/>
  <unicode hex="044D"/>
  <guideline x="889.0" y="493.0" angle="90.0" identifier="9ss4WcbEUf"/>
  <outline>
    <contour>
      <point x="751.55" y="523.8333333333334" type="line" smooth="yes"/>
      <point x="751.55" y="200.35733333333332"/>
      <point x="593.7559958847658" y="-30.0"/>
      <point x="335.0833333333333" y="-30.0" type="curve" smooth="yes"/>
      <point x="105.94041121500234" y="-30.0"/>
      <point x="6.450000000000003" y="114.61166666666665"/>
      <point x="6.450000000000003" y="303.2166666666667" type="curve" smooth="yes"/>
      <point x="6.450000000000003" y="308.2166666666667" type="line"/>
      <point x="54.80000000000001" y="308.2166666666667" type="line"/>
      <point x="54.80000000000001" y="303.2166666666667" type="line" smooth="yes"/>
      <point x="54.80000000000001" y="145.56566666666663"/>
      <point x="145.26808064521774" y="27.5"/>
      <point x="336.15" y="27.5" type="curve" smooth="yes"/>
      <point x="575.7812342341659" y="27.5"/>
      <point x="701.5" y="224.77699999999993"/>
      <point x="701.5" y="506.3333333333333" type="curve" smooth="yes"/>
      <point x="701.5" y="555.9333333333333" type="line" smooth="yes"/>
      <point x="701.5" y="836.7080000000001"/>
      <point x="586.4501643836203" y="1025.5666666666666"/>
      <point x="353.7833333333333" y="1025.5666666666666" type="curve" smooth="yes"/>
      <point x="179.00374731188444" y="1025.5666666666666"/>
      <point x="85.19999999999999" y="939.644"/>
      <point x="85.19999999999999" y="748.7833333333333" type="curve" smooth="yes"/>
      <point x="85.19999999999999" y="743.7833333333333" type="line"/>
      <point x="36.85" y="743.7833333333333" type="line"/>
      <point x="36.85" y="748.7833333333333" type="line" smooth="yes"/>
      <point x="36.85" y="974.4616666666668"/>
      <point x="175.99541121500235" y="1082.0"/>
      <point x="351.65" y="1082.0" type="curve" smooth="yes"/>
      <point x="593.500354080161" y="1082.0"/>
      <point x="751.55" y="857.0653333333333"/>
      <point x="751.55" y="555.8333333333334" type="curve" smooth="yes"/>
    </contour>
    <contour>
      <point x="719.05" y="564.35" type="line"/>
      <point x="719.05" y="505.1166666666667" type="line"/>
      <point x="248.83333333333334" y="505.1166666666667" type="line"/>
      <point x="248.83333333333334" y="564.35" type="line"/>
    </contour>
  </outline>
</glyph>
<glyph name="Germandbls" format="2">
  <advance width="1353"/>
  <unicode hex="1E9E"/>
  <outline>
    <contour>
      <point x="288.26666666666665" y="1101.9666666666667" type="line" smooth="yes"/>
      <point x="288.26666666666665" y="1412.132"/>
      <point x="413.69966666666664" y="1508.6166666666666"/>
      <point x="637.1" y="1508.6166666666666" type="curve" smooth="yes"/>
      <point x="729.0240000000001" y="1508.6166666666666"/>
      <point x="915.2833333333333" y="1467.747"/>
      <point x="915.2833333333333" y="1255.0666666666666" type="curve" smooth="yes"/>
      <point x="915.2833333333333" y="1177.704"/>
      <point x="917.1243333333333" y="1133.192"/>
      <point x="757.0166666666667" y="1007.5" type="curve" smooth="yes"/>
      <point x="671.3013333333333" y="939.5396666666666"/>
      <point x="630.85" y="881.286"/>
      <point x="630.85" y="855.0666666666667" type="curve" smooth="yes"/>
      <point x="630.85" y="772.612"/>
      <point x="795.8806666666667" y="706.5813333333333"/>
      <point x="912.55" y="672.3666666666667" type="curve" smooth="yes"/>
      <point x="1174.8773333333334" y="587.8349999999999"/>
      <point x="1239.8" y="473.9753333333334"/>
      <point x="1239.8" y="336.0" type="curve" smooth="yes"/>
      <point x="1239.8" y="101.1873333333333"/>
      <point x="1128.2486666666666" y="-16.166666666666668"/>
      <point x="811.3833333333333" y="-16.166666666666668" type="curve" smooth="yes"/>
      <point x="635.9326666666667" y="-16.166666666666668"/>
      <point x="517.9666666666667" y="107.54466666666667"/>
      <point x="517.9666666666667" y="266.06666666666666" type="curve" smooth="yes"/>
      <point x="517.9666666666667" y="286.3666666666667" type="line"/>
      <point x="575.7166666666667" y="286.3666666666667" type="line"/>
      <point x="575.7166666666667" y="267.45" type="line" smooth="yes"/>
      <point x="575.7166666666667" y="121.47933333333336"/>
      <point x="693.254" y="36.78333333333333"/>
      <point x="819.75" y="36.78333333333333" type="curve" smooth="yes"/>
      <point x="1061.553" y="36.78333333333333"/>
      <point x="1194.9666666666667" y="166.04966666666667"/>
      <point x="1194.9666666666667" y="331.3833333333333" type="curve" smooth="yes"/>
      <point x="1194.9666666666667" y="446.534"/>
      <point x="1122.4116666666666" y="550.2929999999999"/>
      <point x="865.4666666666667" y="636.5666666666666" type="curve" smooth="yes"/>
      <point x="750.6286666666666" y="670.491"/>
      <point x="603.25" y="754.5046666666666"/>
      <point x="603.25" y="859.65" type="curve" smooth="yes"/>
      <point x="603.25" y="901.5473333333333"/>
      <point x="662.1036666666668" y="991.1086666666667"/>
      <point x="721.6666666666666" y="1046.3166666666666" type="curve" smooth="yes"/>
      <point x="852.5400000000001" y="1155.9510000000002"/>
      <point x="891.0166666666667" y="1199.764"/>
      <point x="891.0166666666667" y="1253.9" type="curve" smooth="yes"/>
      <point x="891.0166666666667" y="1387.9223333333334"/>
      <point x="756.4116666666666" y="1454.5166666666667"/>
      <point x="627.8833333333333" y="1454.5166666666667" type="curve" smooth="yes"/>
      <point x="453.39300000000003" y="1454.5166666666667"/>
      <point x="324.35" y="1333.785"/>
      <point x="324.35" y="1113.4666666666667" type="curve" smooth="yes"/>
      <point x="324.35" y="320.4166666666667" type="line" smooth="yes"/>
      <point x="324.35" y="98.69133333333329"/>
      <point x="257.6023333333333" y="-16.0"/>
      <point x="100.8" y="-16.0" type="curve" smooth="yes"/>
      <point x="64.84333333333333" y="-16.0"/>
      <point x="31.96466666666667" y="-9.174333333333335"/>
      <point x="25.666666666666664" y="-0.9333333333333336" type="curve"/>
      <point x="26.433333333333334" y="40.58333333333334" type="line"/>
      <point x="32.93233333333333" y="34.70966666666665"/>
      <point x="62.32933333333333" y="30.05000000000001"/>
      <point x="96.63333333333333" y="30.05000000000001" type="curve" smooth="yes"/>
      <point x="221.52133333333336" y="30.05000000000001"/>
      <point x="288.26666666666665" y="133.59833333333333"/>
      <point x="288.26666666666665" y="320.4166666666667" type="curve" smooth="yes"/>
    </contour>
  </outline>
</glyph>
<glyph name="quotesinglbase" format="2">
  <advance width="410"/>
  <unicode hex="201A"/>
  <outline>
    <contour>
      <point x="262.6666666666667" y="220.0" type="line"/>
      <point x="262.6666666666667" y="101.68333333333334" type="line" smooth="yes"/>
      <point x="262.6666666666667" y="-18.91666666666667"/>
      <point x="226.245" y="-130.02066666666664"/>
      <point x="125.63333333333333" y="-217.43333333333334" type="curve"/>
      <point x="80.5" y="-187.31666666666666" type="line"/>
      <point x="156.45566666666667" y="-111.85233333333333"/>
      <point x="190.71666666666667" y="-9.85666666666667"/>
      <point x="190.71666666666667" y="98.68333333333334" type="curve" smooth="yes"/>
      <point x="190.71666666666667" y="220.0" type="line"/>
    </contour>
  </outline>
</glyph>
<glyph name="dagger" format="2">
  <advance width="1008"/>
  <unicode hex="2020"/>
  <outline>
    <contour>
      <point x="481.8833333333333" y="-274.0" type="curve"/>
      <point x="477.8833333333333" y="8.0" type="line"/>
      <point x="489.2" y="748.0" type="line"/>
      <point x="489.2" y="921.1666666666666" type="line"/>
      <point x="125.33333333333334" y="921.1666666666666" type="line"/>
      <point x="125.33333333333334" y="969.6666666666666" type="line"/>
      <point x="485.2" y="969.6666666666666" type="line"/>
      <point x="472.2" y="1508.0" type="line"/>
      <point x="529.4166666666666" y="1508.0" type="line"/>
      <point x="516.4166666666666" y="969.6666666666666" type="line"/>
      <point x="877.6666666666666" y="969.6666666666666" type="line"/>
      <point x="877.6666666666666" y="921.1666666666666" type="line"/>
      <point x="512.4166666666666" y="921.1666666666666" type="line"/>
      <point x="512.4166666666666" y="748.0" type="line"/>
      <point x="523.7333333333333" y="8.0" type="line"/>
      <point x="519.7333333333333" y="-274.0" type="line"/>
      <point x="501.62100000000004" y="-322.0613333333333"/>
      <point x="503.1893333333333" y="-321.5476666666667"/>
    </contour>
  </outline>
</glyph>
<glyph name="hryvnia" format="2">
  <advance width="1008"/>
  <unicode hex="20B4"/>
  <outline>
    <contour>
      <point x="961.1833333333334" y="597.2666666666667" type="line"/>
      <point x="47.25" y="597.2666666666667" type="line"/>
      <point x="47.25" y="535.7833333333333" type="line"/>
      <point x="961.1833333333334" y="535.7833333333333" type="line"/>
    </contour>
    <contour>
      <point x="957.9833333333333" y="917.4666666666667" type="line"/>
      <point x="47.25" y="917.4666666666667" type="line"/>
      <point x="47.25" y="853.5333333333333" type="line"/>
      <point x="961.1833333333334" y="853.5333333333333" type="line"/>
    </contour>
    <contour>
      <point x="918.7833333333333" y="1146.6666666666667" type="curve" smooth="yes"/>
      <point x="918.7833333333333" y="1355.796"/>
      <point x="756.6903333333333" y="1486.0"/>
      <point x="500.68333333333334" y="1486.0" type="curve" smooth="yes"/>
      <point x="269.10900000000004" y="1486.0"/>
      <point x="103.23333333333333" y="1314.7636666666667"/>
      <point x="103.23333333333333" y="1090.9166666666667" type="curve" smooth="yes"/>
      <point x="103.23333333333333" y="1068.25" type="line"/>
      <point x="153.9" y="1068.25" type="line"/>
      <point x="153.9" y="1090.9166666666667" type="line" smooth="yes"/>
      <point x="153.9" y="1281.6433333333334"/>
      <point x="280.7396666666666" y="1429.7"/>
      <point x="505.0333333333333" y="1429.7" type="curve" smooth="yes"/>
      <point x="771.3583333333333" y="1429.7"/>
      <point x="870.1166666666667" y="1299.7493333333334"/>
      <point x="870.1166666666667" y="1135.7333333333333" type="curve" smooth="yes"/>
      <point x="870.1166666666667" y="1051.09"/>
      <point x="844.7413333333334" y="980.5656666666667"/>
      <point x="751.5666666666666" y="909.3" type="curve"/>
      <point x="854.5666666666666" y="909.3" type="line"/>
      <point x="897.0" y="974.3346666666667"/>
      <point x="918.7833333333333" y="1053.9386666666667"/>
    </contour>
    <contour>
      <point x="946.5333333333333" y="379.9166666666667" type="line"/>
      <point x="894.4833333333333" y="379.9166666666667" type="line"/>
      <point x="894.4833333333333" y="357.25" type="line" smooth="yes"/>
      <point x="894.4833333333333" y="152.40866666666665"/>
      <point x="753.7423333333334" y="26.30000000000001"/>
      <point x="507.3833333333333" y="26.30000000000001" type="curve" smooth="yes"/>
      <point x="261.0243333333333" y="26.30000000000001"/>
      <point x="124.76666666666668" y="170.09799999999998"/>
      <point x="124.76666666666668" y="350.2833333333333" type="curve" smooth="yes"/>
      <point x="124.76666666666668" y="444.664"/>
      <point x="143.61400000000003" y="519.9873333333334"/>
      <point x="213.38333333333333" y="575.0166666666667" type="curve"/>
      <point x="127.65" y="575.0166666666667" type="line"/>
      <point x="91.00099999999999" y="513.7563333333333"/>
      <point x="76.1" y="438.034"/>
      <point x="76.1" y="346.3333333333333" type="curve" smooth="yes"/>
      <point x="76.1" y="112.59266666666667"/>
      <point x="240.70100000000002" y="-30.0"/>
      <point x="507.3833333333333" y="-30.0" type="curve" smooth="yes"/>
      <point x="774.5793333333334" y="-30.0"/>
      <point x="946.5333333333333" y="88.37899999999996"/>
      <point x="946.5333333333333" y="357.25" type="curve" smooth="yes"/>
    </contour>
  </outline>
</glyph>
<glyph name="uni20B5" format="2">
  <advance width="1024"/>
  <unicode hex="20B5"/>
  <guideline x="0" y="-125.0" angle="0" identifier="1Am3eQoiKr"/>
  <outline>
    <contour>
      <point x="515.4166666666666" y="-190.0" type="line"/>
      <point x="515.4166666666666" y="37.0" type="line"/>
      <point x="511.81666666666666" y="51.0" type="line"/>
      <point x="511.81666666666666" y="708.0" type="line"/>
      <point x="563.9" y="708.0" type="line"/>
      <point x="563.9" y="50.0" type="line"/>
      <point x="560.6833333333334" y="40.0" type="line"/>
      <point x="560.6833333333334" y="-190.0" type="line"/>
    </contour>
    <contour>
      <point x="511.81666666666666" y="708.0" type="line"/>
      <point x="511.81666666666666" y="1445.0" type="line"/>
      <point x="514.2666666666667" y="1455.0" type="line"/>
      <point x="514.2666666666667" y="1582.0" type="line"/>
      <point x="563.3666666666667" y="1582.0" type="line"/>
      <point x="563.3666666666667" y="1455.0" type="line"/>
      <point x="563.9" y="1446.15" type="line"/>
      <point x="563.9" y="708.0" type="line"/>
    </contour>
    <contour>
      <point x="861.3333333333334" y="436.0" type="curve" smooth="yes"/>
      <point x="861.3333333333334" y="460.0" type="line"/>
      <point x="914.7666666666667" y="458.0" type="line"/>
      <point x="915.15" y="436.0" type="line" smooth="yes"/>
      <point x="935.3170000000001" y="175.437"/>
      <point x="830.4266666666666" y="-25.0"/>
      <point x="543.6666666666666" y="-25.0" type="curve" smooth="yes"/>
      <point x="247.5266666666667" y="-25.0"/>
      <point x="160.1" y="160.5"/>
      <point x="160.1" y="462.0" type="curve" smooth="yes"/>
      <point x="160.1" y="1002.0" type="line" smooth="yes"/>
      <point x="160.1" y="1288.76"/>
      <point x="248.2066666666667" y="1485.0"/>
      <point x="541.6666666666666" y="1485.0" type="curve" smooth="yes"/>
      <point x="832.4466666666667" y="1485.0"/>
      <point x="918.3896666666667" y="1306.04"/>
      <point x="913.7666666666667" y="1030.0" type="curve" smooth="yes"/>
      <point x="914.7666666666667" y="1008.0" type="line"/>
      <point x="863.25" y="1006.0" type="line"/>
      <point x="863.25" y="1030.0" type="line" smooth="yes"/>
      <point x="871.0219999999999" y="1307.8713333333333"/>
      <point x="751.4286666666667" y="1428.6"/>
      <point x="544.6666666666666" y="1428.6" type="curve" smooth="yes"/>
      <point x="325.4426666666667" y="1428.6"/>
      <point x="211.61666666666667" y="1283.055"/>
      <point x="211.61666666666667" y="1004.0" type="curve" smooth="yes"/>
      <point x="211.61666666666667" y="464.0" type="line" smooth="yes"/>
      <point x="211.61666666666667" y="181.12599999999998"/>
      <point x="327.0079999999999" y="36.233333333333334"/>
      <point x="557.6666666666666" y="36.233333333333334" type="curve" smooth="yes"/>
      <point x="767.6893333333334" y="36.233333333333334"/>
      <point x="861.3333333333334" y="163.7566666666666"/>
    </contour>
  </outline>
</glyph>
<glyph name="rupeeIndian" format="2">
  <advance width="939"/>
  <unicode hex="20B9"/>
  <outline>
    <contour>
      <point x="19.0" y="988.0666666666666" type="line"/>
      <point x="19.0" y="1036.3166666666666" type="line"/>
      <point x="904.6666666666666" y="1036.3166666666666" type="line"/>
      <point x="904.6666666666666" y="988.0666666666666" type="line"/>
    </contour>
    <contour>
      <point x="831.3333333333334" y="0.0" type="line"/>
      <point x="685.3333333333334" y="267.0" type="line" smooth="yes"/>
      <point x="559.3733333333333" y="497.48"/>
      <point x="454.6" y="650.4823333333333"/>
      <point x="200.0" y="658.5" type="curve" smooth="yes"/>
      <point x="19.0" y="663.5" type="line"/>
      <point x="19.0" y="705.6" type="line"/>
      <point x="264.3333333333333" y="705.6" type="line" smooth="yes"/>
      <point x="481.1006666666667" y="705.6"/>
      <point x="672.9166666666666" y="791.7539999999999"/>
      <point x="672.9166666666666" y="1046.6666666666667" type="curve" smooth="yes"/>
      <point x="672.9166666666666" y="1215.5066666666667"/>
      <point x="507.47333333333336" y="1407.5330000000001"/>
      <point x="278.3333333333333" y="1404.25" type="curve" smooth="yes"/>
      <point x="19.0" y="1404.25" type="line"/>
      <point x="19.0" y="1456.0" type="line"/>
      <point x="913.6666666666666" y="1456.0" type="line"/>
      <point x="913.6666666666666" y="1405.25" type="line"/>
      <point x="498.8333333333333" y="1405.25" type="line"/>
      <point x="421.8333333333333" y="1413.25" type="line"/>
      <point x="423.8333333333333" y="1405.25" type="line"/>
      <point x="646.653" y="1328.803"/>
      <point x="719.35" y="1225.043"/>
      <point x="719.35" y="1046.6666666666667" type="curve" smooth="yes"/>
      <point x="719.35" y="847.5426666666665"/>
      <point x="601.4546666666665" y="680.7823333333333"/>
      <point x="319.1166666666667" y="653.0666666666667" type="curve"/>
      <point x="482.15" y="622.2466666666667"/>
      <point x="595.8546666666667" y="503.394"/>
      <point x="712.1666666666666" y="317.0" type="curve" smooth="yes"/>
      <point x="882.1666666666666" y="0.0" type="line"/>
    </contour>
  </outline>
</glyph>
<glyph name="De.bgr" format="2">
  <advance width="1250"/>
  <outline>
    <contour>
      <point x="1192.9833333333333" y="-290.0" type="line"/>
      <point x="1192.9833333333333" y="0.0" type="line"/>
      <point x="57.5" y="0.0" type="line"/>
      <point x="57.5" y="-290.0" type="line"/>
      <point x="10.0" y="-290.0" type="line"/>
      <point x="10.0" y="56.900000000000006" type="line"/>
      <point x="1240.4833333333333" y="56.900000000000006" type="line"/>
      <point x="1240.4833333333333" y="-290.0" type="line"/>
    </contour>
    <contour>
      <point x="1152.1166666666668" y="0.0" type="line"/>
      <point x="1097.2333333333333" y="0.0" type="line"/>
      <point x="691.2333333333333" y="1285.7333333333333" type="line" smooth="yes"/>
      <point x="672.5403333333333" y="1340.8073333333332"/>
      <point x="644.6346666666666" y="1424.9800000000002"/>
      <point x="630.9666666666667" y="1491.5333333333333" type="curve"/>
      <point x="624.4166666666666" y="1491.5333333333333" type="line"/>
      <point x="610.235" y="1421.094"/>
      <point x="579.493" y="1336.4863333333333"/>
      <point x="560.8" y="1275.5833333333333" type="curve" smooth="yes"/>
      <point x="157.91666666666669" y="0.0" type="line"/>
      <point x="98.36666666666666" y="0.0" type="line"/>
      <point x="567.05" y="1466.0" type="line"/>
      <point x="684.8166666666666" y="1466.0" type="line"/>
    </contour>
  </outline>
</glyph>
<glyph name="El.bgr" format="2">
  <advance width="1014"/>
  <outline>
    <contour>
      <point x="1013.75" y="0.0" type="line"/>
      <point x="958.8666666666667" y="0.0" type="line"/>
      <point x="572.8666666666667" y="1270.2" type="line" smooth="yes"/>
      <point x="553.66" y="1331.103"/>
      <point x="520.961" y="1418.6106666666667"/>
      <point x="505.35" y="1489.05" type="curve"/>
      <point x="498.8" y="1489.05" type="line"/>
      <point x="484.6183333333334" y="1418.6106666666667"/>
      <point x="454.39" y="1331.103"/>
      <point x="435.18333333333334" y="1270.2" type="curve" smooth="yes"/>
      <point x="47.94999999999999" y="0.0" type="line"/>
      <point x="0.0" y="0.0" type="line"/>
      <point x="448.68333333333334" y="1466.0" type="line"/>
      <point x="566.45" y="1466.0" type="line"/>
    </contour>
  </outline>
</glyph>
<glyph name="three.prop" format="2">
  <advance width="1037"/>
  <outline>
    <contour>
      <point x="159.16666666666666" y="377.23333333333335" type="curve" smooth="yes"/>
      <point x="159.16666666666666" y="390.0" type="line"/>
      <point x="201.06666666666666" y="390.0" type="line"/>
      <point x="201.06666666666666" y="380.0" type="line" smooth="yes"/>
      <point x="201.06666666666666" y="153.31666666666666"/>
      <point x="339.94233333333335" y="21.683333333333337"/>
      <point x="513.45" y="21.683333333333337" type="curve" smooth="yes"/>
      <point x="668.421" y="21.683333333333337"/>
      <point x="821.0666666666667" y="149.89199999999997"/>
      <point x="821.0666666666667" y="373.7166666666667" type="curve" smooth="yes"/>
      <point x="821.0666666666667" y="623.9169999999999"/>
      <point x="641.2273333333333" y="731.1666666666666"/>
      <point x="479.4" y="731.1666666666666" type="curve" smooth="yes"/>
      <point x="372.4166666666667" y="731.1666666666666" type="line"/>
      <point x="372.4166666666667" y="786.8333333333334" type="line"/>
      <point x="469.0833333333333" y="786.8333333333334" type="line" smooth="yes"/>
      <point x="634.3723333333332" y="786.8333333333334"/>
      <point x="774.7" y="911.14"/>
      <point x="774.7" y="1100.75" type="curve" smooth="yes"/>
      <point x="774.7" y="1313.0283333333334"/>
      <point x="658.0583333333334" y="1436.1703333333335"/>
      <point x="513.45" y="1434.3166666666666" type="curve" smooth="yes"/>
      <point x="370.69533333333334" y="1434.3166666666666"/>
      <point x="234.35000000000002" y="1296.6003333333333"/>
      <point x="234.35000000000002" y="1100.0" type="curve" smooth="yes"/>
      <point x="234.35000000000002" y="1076.1666666666667" type="line"/>
      <point x="195.21666666666667" y="1076.1666666666667" type="line"/>
      <point x="195.21666666666667" y="1100.0" type="line" smooth="yes"/>
      <point x="195.21666666666667" y="1327.3756666666668"/>
      <point x="345.21299999999997" y="1486.0"/>
      <point x="513.45" y="1486.0" type="curve" smooth="yes"/>
      <point x="684.97" y="1486.0"/>
      <point x="817.0666666666666" y="1327.8"/>
      <point x="817.0666666666666" y="1100.0" type="curve" smooth="yes"/>
      <point x="817.0666666666666" y="953.0243333333334"/>
      <point x="742.4033333333334" y="832.5573333333333"/>
      <point x="589.8666666666667" y="761.85" type="curve"/>
      <point x="589.8666666666667" y="757.85" type="line"/>
      <point x="737.691" y="724.2383333333333"/>
      <point x="865.4333333333334" y="606.433"/>
      <point x="865.4333333333334" y="366.4166666666667" type="curve" smooth="yes"/>
      <point x="865.4333333333334" y="145.27199999999996"/>
      <point x="705.6283333333333" y="-29.529666666666667"/>
      <point x="513.45" y="-31.383333333333333" type="curve" smooth="yes"/>
      <point x="321.2716666666666" y="-33.237"/>
      <point x="159.16666666666666" y="117.49666666666667"/>
    </contour>
  </outline>
</glyph>
<glyph name="zero.prop" format="2">
  <advance width="1030"/>
  <outline>
    <contour>
      <point x="193.23333333333335" y="398.56666666666666" type="curve" smooth="yes"/>
      <point x="193.23333333333335" y="1054.6666666666667" type="line" smooth="yes"/>
      <point x="193.23333333333335" y="1333.1186666666667"/>
      <point x="309.06399999999996" y="1486.0"/>
      <point x="515.0666666666667" y="1486.0" type="curve" smooth="yes"/>
      <point x="722.0966666666666" y="1486.0"/>
      <point x="836.9" y="1333.1186666666667"/>
      <point x="836.9" y="1054.6666666666667" type="curve" smooth="yes"/>
      <point x="836.9" y="398.56666666666666" type="line" smooth="yes"/>
      <point x="836.9" y="122.9733333333333"/>
      <point x="722.0966666666666" y="-30.0"/>
      <point x="515.0666666666667" y="-30.0" type="curve" smooth="yes"/>
      <point x="309.06399999999996" y="-30.0"/>
      <point x="193.23333333333335" y="122.9733333333333"/>
    </contour>
    <contour>
      <point x="236.21666666666667" y="394.1" type="line" smooth="yes"/>
      <point x="236.21666666666667" y="170.9453333333333"/>
      <point x="338.83433333333335" y="21.683333333333337"/>
      <point x="515.0666666666667" y="21.683333333333337" type="curve" smooth="yes"/>
      <point x="691.299" y="21.683333333333337"/>
      <point x="793.9166666666666" y="170.9453333333333"/>
      <point x="793.9166666666666" y="394.1" type="curve" smooth="yes"/>
      <point x="793.9166666666666" y="1054.9833333333333" type="line" smooth="yes"/>
      <point x="793.9166666666666" y="1279.143"/>
      <point x="693.1526666666667" y="1434.3166666666666"/>
      <point x="515.0666666666667" y="1434.3166666666666" type="curve" smooth="yes"/>
      <point x="336.98066666666665" y="1434.3166666666666"/>
      <point x="236.21666666666667" y="1279.143"/>
      <point x="236.21666666666667" y="1054.9833333333333" type="curve" smooth="yes"/>
    </contour>
  </outline>
</glyph>
